<svg xmlns="http://www.w3.org/2000/svg" xmlns:xlink="http://www.w3.org/1999/xlink" width="260" height="105" viewBox="0 0 260 105"><defs><rect id="b" width="220" height="65" rx="8"/><filter id="a" width="134.1%" height="215.4%" x="-17%" y="-34.6%" filterUnits="objectBoundingBox"><feOffset dy="15" in="SourceAlpha" result="shadowOffsetOuter1"/><feGaussianBlur in="shadowOffsetOuter1" result="shadowBlurOuter1" stdDeviation="10"/><feColorMatrix in="shadowBlurOuter1" values="0 0 0 0 0 0 0 0 0 0 0 0 0 0 0 0 0 0 0.3 0"/></filter></defs><g fill="none" fill-rule="evenodd"><g transform="translate(20 5)"><use fill="#000" filter="url(#a)" xlink:href="#b"/><use fill="#A800FA" xlink:href="#b"/></g><path d="M70.062 37.31a8.88 8.88 0 0 1 4.221-7.449 9.072 9.072 0 0 0-7.15-3.87c-3.008-.317-5.924 1.802-7.457 1.802-1.563 0-3.923-1.771-6.465-1.719a9.52 9.52 0 0 0-8.012 4.894c-3.465 6.006-.88 14.834 2.438 19.689 1.66 2.377 3.601 5.033 6.14 4.939 2.485-.103 3.413-1.587 6.413-1.587 2.971 0 3.842 1.587 6.433 1.527 2.666-.043 4.346-2.388 5.948-4.788a19.675 19.675 0 0 0 2.72-5.548 8.578 8.578 0 0 1-5.23-7.89zm-4.894-14.513a8.748 8.748 0 0 0 1.997-6.261 8.877 8.877 0 0 0-5.746 2.977 8.324 8.324 0 0 0-2.05 6.03 7.34 7.34 0 0 0 5.8-2.746zm34.705 27.019h-8.154l-1.959 5.79h-3.453l7.723-21.421h3.589l7.723 21.42h-3.513l-1.956-5.79zm-7.31-2.672h6.464l-3.187-9.396h-.089l-3.188 9.396zm29.459.654c0 4.853-2.594 7.971-6.509 7.971a5.286 5.286 0 0 1-4.907-2.732h-.074v7.735h-3.202V39.988h3.1v2.598h.058a5.531 5.531 0 0 1 4.966-2.761c3.959 0 6.568 3.133 6.568 7.973zm-3.29 0c0-3.162-1.632-5.24-4.122-5.24-2.446 0-4.092 2.122-4.092 5.24 0 3.147 1.646 5.254 4.092 5.254 2.49 0 4.121-2.064 4.121-5.254zm20.458 0c0 4.853-2.596 7.971-6.51 7.971a5.286 5.286 0 0 1-4.908-2.732h-.074v7.735h-3.201V39.988h3.099v2.598h.058a5.531 5.531 0 0 1 4.967-2.761c3.958 0 6.568 3.133 6.568 7.973zm-3.292 0c0-3.162-1.632-5.24-4.122-5.24-2.446 0-4.091 2.122-4.091 5.24 0 3.147 1.645 5.254 4.091 5.254 2.49 0 4.122-2.064 4.122-5.254zm14.635 1.839c.237 2.125 2.298 3.52 5.114 3.52 2.699 0 4.64-1.395 4.64-3.31 0-1.664-1.17-2.66-3.943-3.341l-2.773-.67c-3.928-.95-5.751-2.789-5.751-5.774 0-3.696 3.216-6.234 7.782-6.234 4.522 0 7.62 2.538 7.725 6.234h-3.232c-.193-2.138-1.958-3.428-4.537-3.428-2.579 0-4.344 1.306-4.344 3.206 0 1.514 1.128 2.405 3.885 3.088l2.357.579c4.389 1.04 6.211 2.805 6.211 5.938 0 4.008-3.186 6.518-8.257 6.518-4.744 0-7.947-2.451-8.154-6.326h3.277zm20.047-13.345v3.696h2.966v2.539h-2.966v8.61c0 1.337.593 1.96 1.897 1.96.352-.006.704-.03 1.053-.074v2.524a8.78 8.78 0 0 1-1.778.148c-3.158 0-4.389-1.188-4.389-4.216v-8.952h-2.268v-2.539h2.268v-3.696h3.217zm4.682 11.506c0-4.914 2.89-8.002 7.397-8.002 4.522 0 7.398 3.088 7.398 8.002 0 4.927-2.861 8.001-7.398 8.001-4.536 0-7.397-3.074-7.397-8.001zm11.533 0c0-3.371-1.542-5.36-4.136-5.36-2.594 0-4.137 2.004-4.137 5.36 0 3.384 1.543 5.358 4.137 5.358 2.594 0 4.136-1.974 4.136-5.358zm5.902-7.81h3.053v2.658h.074a3.72 3.72 0 0 1 3.752-2.821c.369-.002.737.039 1.097.12v2.998a4.47 4.47 0 0 0-1.439-.194 3.224 3.224 0 0 0-2.493 1.028 3.233 3.233 0 0 0-.843 2.565v9.264h-3.201V39.988zm22.736 11.031c-.43 2.835-3.188 4.78-6.715 4.78-4.538 0-7.354-3.044-7.354-7.927 0-4.899 2.832-8.076 7.22-8.076 4.314 0 7.028 2.968 7.028 7.704v1.098h-11.016v.194a4.07 4.07 0 0 0 1.1 3.16 4.06 4.06 0 0 0 3.096 1.263 3.528 3.528 0 0 0 3.602-2.196h3.04zm-10.822-4.662h7.798a3.759 3.759 0 0 0-1.048-2.818 3.748 3.748 0 0 0-2.778-1.145 3.946 3.946 0 0 0-2.81 1.153 3.956 3.956 0 0 0-1.162 2.81zM91.885 18.253a4.583 4.583 0 0 1 3.64 1.402 4.501 4.501 0 0 1 1.213 3.68c0 3.269-1.78 5.147-4.853 5.147H88.16V18.253h3.725zm-2.123 8.782h1.944A3.256 3.256 0 0 0 94.29 26c.66-.714.96-1.684.818-2.642a3.207 3.207 0 0 0-.831-2.625 3.265 3.265 0 0 0-2.57-1.033h-1.945v7.336zm8.786-2.416a3.647 3.647 0 0 1 1.726-3.456 3.714 3.714 0 0 1 3.889 0 3.647 3.647 0 0 1 1.726 3.456 3.648 3.648 0 0 1-1.724 3.461 3.714 3.714 0 0 1-3.893 0 3.648 3.648 0 0 1-1.724-3.461zm5.761 0c0-1.673-.758-2.652-2.088-2.652-1.335 0-2.086.979-2.086 2.652 0 1.687.751 2.658 2.086 2.658 1.33 0 2.088-.978 2.088-2.658zm11.339 3.863h-1.593l-1.61-5.685h-.12l-1.603 5.685h-1.578l-2.146-7.72h1.559l1.394 5.89h.115l1.6-5.89h1.474l1.6 5.89h.121l1.388-5.89h1.536zm3.942-7.719h1.478v1.226h.115a2.333 2.333 0 0 1 2.323-1.375 2.543 2.543 0 0 1 2.043.793c.524.558.764 1.323.651 2.078v4.997h-1.536v-4.615c0-1.24-.544-1.857-1.68-1.857a1.793 1.793 0 0 0-1.382.554 1.762 1.762 0 0 0-.476 1.402v4.516h-1.536v-7.72zm9.058-3.013h1.536v10.732h-1.536zm3.672 6.869a3.648 3.648 0 0 1 1.726-3.456 3.714 3.714 0 0 1 3.889 0 3.648 3.648 0 0 1 1.727 3.456 3.648 3.648 0 0 1-1.725 3.461 3.715 3.715 0 0 1-3.893 0 3.648 3.648 0 0 1-1.725-3.461zm5.76 0c0-1.673-.757-2.652-2.087-2.652-1.336 0-2.087.979-2.087 2.652 0 1.687.751 2.658 2.087 2.658 1.33 0 2.088-.978 2.088-2.658zm3.199 1.68c0-1.39 1.043-2.19 2.895-2.305l2.108-.12v-.666c0-.816-.543-1.276-1.593-1.276-.858 0-1.452.312-1.623.858h-1.487c.157-1.326 1.415-2.176 3.18-2.176 1.952 0 3.052.963 3.052 2.594v5.274h-1.478v-1.085h-.122a2.625 2.625 0 0 1-2.338 1.212 2.364 2.364 0 0 1-1.814-.584 2.323 2.323 0 0 1-.78-1.726zm5.003-.66v-.645l-1.9.12c-1.073.072-1.559.433-1.559 1.114 0 .694.608 1.099 1.444 1.099.494.05.988-.102 1.368-.42.38-.318.613-.776.647-1.268zm3.548-1.02c0-2.44 1.265-3.985 3.231-3.985a2.57 2.57 0 0 1 2.387 1.355h.115v-4.24h1.536v10.733h-1.472v-1.22h-.121a2.706 2.706 0 0 1-2.445 1.347c-1.98 0-3.23-1.545-3.23-3.99zm1.587 0c0 1.637.778 2.622 2.08 2.622 1.295 0 2.095-1 2.095-2.615 0-1.61-.809-2.623-2.095-2.623-1.293 0-2.08.992-2.08 2.616zm12.038 0a3.647 3.647 0 0 1 1.726-3.456 3.714 3.714 0 0 1 3.889 0 3.647 3.647 0 0 1 1.726 3.456 3.648 3.648 0 0 1-1.724 3.461 3.714 3.714 0 0 1-3.893 0 3.648 3.648 0 0 1-1.724-3.461zm5.761 0c0-1.673-.758-2.652-2.088-2.652-1.335 0-2.086.979-2.086 2.652 0 1.687.75 2.658 2.086 2.658 1.33 0 2.088-.978 2.088-2.658zm3.641-3.856h1.479v1.226h.115a2.333 2.333 0 0 1 2.322-1.375 2.543 2.543 0 0 1 2.044.793c.524.558.763 1.323.65 2.078v4.997h-1.535v-4.615c0-1.24-.544-1.857-1.68-1.857a1.793 1.793 0 0 0-1.383.554 1.762 1.762 0 0 0-.476 1.402v4.516h-1.536v-7.72zm15.291-1.923v1.958h1.686v1.283h-1.686v3.97c0 .808.336 1.162 1.1 1.162.196 0 .392-.012.586-.035v1.269a5.08 5.08 0 0 1-.836.078c-1.708 0-2.388-.596-2.388-2.085v-4.36h-1.236v-1.282h1.236V18.84h1.538zm3.784-1.09h1.523v4.253h.121a2.398 2.398 0 0 1 2.374-1.383 2.575 2.575 0 0 1 2.023.814 2.53 2.53 0 0 1 .657 2.064v4.984h-1.537v-4.608c0-1.233-.58-1.858-1.665-1.858a1.827 1.827 0 0 0-1.439.527c-.377.377-.568.9-.52 1.43v4.509h-1.537V17.749zm15.655 8.648a3.16 3.16 0 0 1-3.372 2.233 3.55 3.55 0 0 1-2.728-1.167 3.487 3.487 0 0 1-.868-2.818 3.54 3.54 0 0 1 .867-2.828 3.603 3.603 0 0 1 2.722-1.204c2.166 0 3.472 1.467 3.472 3.891v.532h-5.496v.085a2.03 2.03 0 0 0 .543 1.56c.395.421.95.658 1.53.651a1.87 1.87 0 0 0 1.852-.935h1.478zm-5.403-2.488h3.931a1.853 1.853 0 0 0-.511-1.42 1.886 1.886 0 0 0-1.405-.58 2 2 0 0 0-1.433.579c-.38.376-.59.889-.582 1.42z" fill="#FFF" fill-rule="nonzero"/></g></svg>