<svg xmlns="http://www.w3.org/2000/svg" xmlns:xlink="http://www.w3.org/1999/xlink" width="348" height="198" viewBox="0 0 348 198">
    <defs>
        <path id="b" d="M144.782 0l-25.216 121.57H86.92L72.224 55.608 57.946 121.57H25.3L0 0h30.894l12.858 74.312L58.948 0H85.5l15.614 74.562L113.972 0h30.81zm13.84 121.57V0H189.6v121.57h-30.977zm123.053 0l-40.58-70.72v70.72h-31.143V0h31.144l40.495 70.638V0h31.06v121.57h-30.976z"/>
        <filter id="a" width="121.4%" height="155.1%" x="-10.7%" y="-16.9%" filterUnits="objectBoundingBox">
            <feOffset dy="13" in="SourceAlpha" result="shadowOffsetOuter1"/>
            <feGaussianBlur in="shadowOffsetOuter1" result="shadowBlurOuter1" stdDeviation="9"/>
            <feColorMatrix in="shadowBlurOuter1" values="0 0 0 0 0 0 0 0 0 0 0 0 0 0 0 0 0 0 0.3 0"/>
        </filter>
    </defs>
    <g fill="none" fill-rule="evenodd">
        <g fill="#FFF">
            <path d="M196.268 179.741c-2.956-1.002-5.503-2.09-7.64-3.263-2.137-1.174-3.89-2.673-5.258-4.497-1.368-1.825-2.052-4.021-2.052-6.588 0-2.527.734-4.723 2.202-6.588 1.468-1.865 3.5-3.298 6.097-4.301 2.596-1.003 5.522-1.504 8.778-1.504 3.175 0 6.001.541 8.478 1.624 2.477 1.083 4.419 2.652 5.827 4.708 1.408 2.055 2.112 4.507 2.112 7.354h-11.145c0-1.483-.474-2.662-1.423-3.534-.948-.872-2.321-1.308-4.119-1.308-1.198 0-2.227.17-3.086.51-.859.342-1.508.788-1.947 1.34-.44.551-.66 1.158-.66 1.82 0 1.102.635 2.045 1.903 2.827s3.21 1.604 5.827 2.466c4.814 1.565 8.454 3.51 10.92 5.836 2.467 2.326 3.7 5.294 3.7 8.904 0 2.647-.67 4.903-2.007 6.768-1.338 1.865-3.226 3.279-5.662 4.241-2.437.963-5.303 1.444-8.599 1.444-3.215 0-6.226-.536-9.032-1.61-2.806-1.072-5.088-2.752-6.846-5.038-1.757-2.286-2.636-5.153-2.636-8.603h11.234c0 1.625.265 2.908.794 3.85.53.943 1.324 1.61 2.382 2 1.059.392 2.427.587 4.104.587 1.738 0 3.021-.345 3.85-1.037.829-.692 1.243-1.54 1.243-2.542 0-.862-.18-1.59-.539-2.18-.36-.592-1.063-1.179-2.112-1.76-1.048-.582-2.611-1.224-4.688-1.926zm61.653-26.14v43.797h-11.144v-17.747h-14.56v17.747h-11.175v-43.796h11.175v16.995h14.56v-16.995h11.144zm5.003 12.544l2.007-5.956 9.646 4.121-.808-10.708h6.65l-.868 10.919 9.377-4.031 2.037 6.016-10.036 2.737 6.68 7.941-5.332 3.73-5.542-8.933-5.543 8.633-5.332-3.58 6.95-8.182-9.886-2.707zm67.076-3.46h-13.002v34.713h-11.205v-34.712h-12.672v-9.084H330v9.084zM39.711 179.348c-3.036-1.024-5.652-2.136-7.848-3.334-2.195-1.198-3.995-2.73-5.4-4.594-1.406-1.864-2.109-4.107-2.109-6.73 0-2.58.754-4.824 2.262-6.729 1.508-1.905 3.596-3.37 6.263-4.394s5.673-1.536 9.017-1.536c3.263 0 6.166.553 8.71 1.659 2.544 1.106 4.54 2.71 5.986 4.809 1.446 2.1 2.17 4.604 2.17 7.513H47.313c0-1.516-.487-2.72-1.462-3.61-.974-.892-2.385-1.337-4.232-1.337-1.23 0-2.287.174-3.17.522-.882.348-1.549.804-2 1.368-.451.563-.677 1.183-.677 1.859 0 1.126.651 2.09 1.954 2.888 1.303.799 3.298 1.639 5.986 2.52 4.945 1.598 8.684 3.585 11.218 5.961 2.534 2.376 3.8 5.408 3.8 9.096 0 2.704-.686 5.008-2.061 6.913-1.375 1.906-3.314 3.35-5.817 4.333-2.503.983-5.447 1.475-8.832 1.475-3.304 0-6.397-.548-9.28-1.644-2.882-1.096-5.226-2.812-7.032-5.147-1.805-2.335-2.708-5.265-2.708-8.788h11.541c0 1.66.272 2.97.816 3.933.543.963 1.359 1.644 2.446 2.043 1.088.4 2.493.6 4.217.6 1.785 0 3.103-.354 3.954-1.06.852-.707 1.277-1.573 1.277-2.597 0-.88-.184-1.623-.553-2.228-.37-.604-1.093-1.203-2.17-1.797-1.077-.594-2.683-1.25-4.817-1.967zm25.114 18.037v-44.74h11.417v44.74H64.825zm55.242-15.425c-.102 3.196-.943 6.007-2.523 8.435-1.58 2.427-3.765 4.302-6.555 5.623-2.79 1.321-6.012 1.982-9.664 1.982-4.022 0-7.474-.88-10.356-2.643-2.883-1.761-5.078-4.296-6.586-7.605-1.508-3.308-2.262-7.236-2.262-11.784v-1.874c0-4.507.784-8.425 2.354-11.754 1.57-3.329 3.785-5.884 6.648-7.667 2.862-1.782 6.18-2.673 9.956-2.673 3.857 0 7.17.696 9.94 2.09 2.77 1.393 4.92 3.323 6.448 5.792 1.528 2.468 2.426 5.31 2.693 8.527H108.71c-.02-2.417-.615-4.184-1.785-5.3-1.17-1.117-3.118-1.675-5.847-1.675-1.703 0-3.078.394-4.124 1.183-1.047.788-1.831 2.1-2.355 3.933-.523 1.833-.784 4.327-.784 7.482v1.936c0 3.278.24 5.818.723 7.62.482 1.803 1.256 3.078 2.323 3.826 1.067.748 2.555 1.122 4.463 1.122 2.36 0 4.165-.523 5.416-1.567 1.252-1.045 1.888-2.715 1.909-5.01h11.417zm28.191-9.434l14.557 24.86h-13.603l-8.678-15.733-4.278 4.701v11.031h-11.48v-44.74h11.48v19.144l3.631-5.838 8.894-13.306H163l-14.742 19.881z"/>
        </g>
        <g transform="translate(17 5)">
            <use fill="#000" filter="url(#a)" xlink:href="#b"/>
            <use fill="#AB00FF" xlink:href="#b"/>
        </g>
    </g>
</svg>
