<svg xmlns="http://www.w3.org/2000/svg" xmlns:xlink="http://www.w3.org/1999/xlink" width="495" height="84" viewBox="0 0 495 84"><defs><path id="b" d="M54.403 1l-9.475 46H32.66l-5.52-24.959L21.774 47H9.506L0 1h11.608l4.832 28.118L22.15 1h9.977l5.867 28.213L42.826 1h11.577zm5.96 46V1h11.64v46h-11.64zm46.997 0L92.112 20.24V47H80.41V1h11.702l15.217 26.728V1H119v46h-11.64z"/><filter id="a" width="156.3%" height="245.7%" x="-28.2%" y="-44.6%" filterUnits="objectBoundingBox"><feOffset dy="13" in="SourceAlpha" result="shadowOffsetOuter1"/><feGaussianBlur in="shadowOffsetOuter1" result="shadowBlurOuter1" stdDeviation="9"/><feColorMatrix in="shadowBlurOuter1" values="0 0 0 0 0 0 0 0 0 0 0 0 0 0 0 0 0 0 0.3 0"/></filter><path id="d" d="M318.222 28.524c-3.13-1.07-5.825-2.23-8.088-3.481-2.262-1.252-4.118-2.85-5.566-4.797-1.448-1.947-2.172-4.289-2.172-7.027 0-2.695.777-5.037 2.33-7.026 1.555-1.99 3.706-3.52 6.455-4.589C313.93.534 317.027 0 320.474 0c3.362 0 6.354.578 8.975 1.733 2.622 1.155 4.679 2.828 6.17 5.021 1.49 2.193 2.235 4.807 2.235 7.845h-11.798c0-1.583-.502-2.84-1.507-3.77-1.004-.93-2.458-1.396-4.36-1.396-1.27 0-2.358.182-3.267.546-.91.363-1.597.84-2.062 1.427-.465.589-.698 1.236-.698 1.942 0 1.176.672 2.181 2.014 3.016 1.343.834 3.4 1.71 6.169 2.63 5.096 1.67 8.95 3.744 11.56 6.225 2.612 2.482 3.918 5.647 3.918 9.498 0 2.823-.709 5.23-2.125 7.219-1.417 1.99-3.415 3.497-5.995 4.524-2.58 1.027-5.614 1.54-9.102 1.54-3.405 0-6.592-.572-9.563-1.717-2.97-1.144-5.386-2.935-7.247-5.374-1.86-2.438-2.791-5.497-2.791-9.176h11.894c0 1.732.28 3.101.84 4.107.56 1.005 1.4 1.716 2.522 2.133 1.12.417 2.569.626 4.345.626 1.84 0 3.198-.369 4.075-1.107.878-.738 1.316-1.642 1.316-2.711 0-.92-.19-1.695-.57-2.326-.381-.631-1.126-1.257-2.236-1.877-1.11-.62-2.765-1.305-4.964-2.054zm64.91-27.48V48H371.36V28.972h-15.382V48h-11.805V1.043h11.805v18.222h15.382V1.043h11.773zm5.265 13.418l2.11-6.372 10.144 4.409-.85-11.456h6.992l-.913 11.681 9.859-4.312 2.142 6.436-10.553 2.928 7.025 8.495-5.607 3.99-5.827-9.557-5.828 9.235-5.607-3.83 7.308-8.751-10.395-2.896zM460 10.783h-13.736V48h-11.837V10.783H421.04v-9.74H460v9.74z"/><filter id="c" width="142.1%" height="239.6%" x="-21.1%" y="-42.7%" filterUnits="objectBoundingBox"><feOffset dy="13" in="SourceAlpha" result="shadowOffsetOuter1"/><feGaussianBlur in="shadowOffsetOuter1" result="shadowBlurOuter1" stdDeviation="9"/><feColorMatrix in="shadowBlurOuter1" values="0 0 0 0 0 0 0 0 0 0 0 0 0 0 0 0 0 0 0.3 0"/></filter></defs><g fill="none" fill-rule="evenodd"><g transform="translate(17 5)"><use fill="#000" filter="url(#a)" xlink:href="#b"/><use fill="#B300FF" xlink:href="#b"/></g><g transform="translate(17 5)"><use fill="#000" filter="url(#c)" xlink:href="#d"/><use fill="#FFF" xlink:href="#d"/></g><path fill="#FFF" d="M172.192 33.524c-3.124-1.07-5.815-2.23-8.073-3.481-2.259-1.252-4.111-2.85-5.557-4.797-1.446-1.947-2.169-4.289-2.169-7.027 0-2.695.776-5.037 2.327-7.026 1.552-1.99 3.7-3.52 6.443-4.589C167.907 5.534 171 5 174.44 5c3.357 0 6.343.578 8.96 1.733 2.618 1.155 4.67 2.828 6.159 5.021 1.488 2.193 2.232 4.807 2.232 7.845h-11.778c0-1.583-.501-2.84-1.504-3.77-1.003-.93-2.454-1.396-4.354-1.396-1.266 0-2.353.182-3.26.546-.908.363-1.594.84-2.059 1.427-.464.589-.696 1.236-.696 1.942 0 1.176.67 2.181 2.01 3.016 1.34.834 3.393 1.71 6.158 2.63 5.087 1.67 8.934 3.744 11.541 6.225 2.607 2.482 3.91 5.647 3.91 9.498 0 2.823-.707 5.23-2.121 7.219-1.414 1.99-3.409 3.497-5.984 4.524-2.575 1.027-5.604 1.54-9.087 1.54-3.398 0-6.58-.572-9.546-1.717-2.966-1.144-5.377-2.935-7.235-5.374-1.857-2.438-2.786-5.497-2.786-9.176h11.873c0 1.732.28 3.101.84 4.107.559 1.005 1.398 1.716 2.516 2.133 1.12.417 2.565.626 4.338.626 1.836 0 3.193-.369 4.069-1.107.876-.738 1.314-1.642 1.314-2.711 0-.92-.19-1.695-.57-2.326-.38-.631-1.124-1.257-2.233-1.877-1.108-.62-2.76-1.305-4.955-2.054zM198.284 53V6.09h11.903V53h-11.903zm57.253-16.737c-.108 3.334-.993 6.268-2.656 8.801-1.663 2.533-3.963 4.49-6.9 5.868C243.044 52.31 239.654 53 235.81 53c-4.233 0-7.866-.92-10.9-2.758-3.034-1.838-5.345-4.483-6.932-7.935-1.587-3.453-2.381-7.551-2.381-12.297v-1.956c0-4.703.826-8.79 2.478-12.264 1.652-3.474 3.984-6.14 6.997-8C228.084 5.93 231.577 5 235.55 5c4.06 0 7.547.727 10.463 2.18 2.915 1.454 5.177 3.469 6.786 6.044 1.609 2.576 2.554 5.542 2.834 8.898h-12.05c-.021-2.522-.648-4.366-1.879-5.53-1.23-1.166-3.282-1.748-6.154-1.748-1.793 0-3.24.411-4.34 1.234-1.102.823-1.928 2.191-2.479 4.104-.55 1.914-.826 4.516-.826 7.808v2.02c0 3.42.254 6.07.761 7.952.508 1.881 1.323 3.212 2.446 3.992 1.123.78 2.689 1.17 4.697 1.17 2.483 0 4.384-.545 5.701-1.635 1.317-1.09 1.987-2.832 2.008-5.226h12.018zm29.022-9.327L299.807 53h-14.249l-9.09-16.496-4.481 4.93V53h-12.024V6.09h12.024v20.073l3.804-6.122 9.316-13.95H300l-15.441 20.845z"/></g></svg>